<?xml version="1.0" standalone="no"?>
<!DOCTYPE svg PUBLIC "-//W3C//DTD SVG 20010904//EN"
 "http://www.w3.org/TR/2001/REC-SVG-20010904/DTD/svg10.dtd">
<svg version="1.0" xmlns="http://www.w3.org/2000/svg"
 width="700.000000pt" height="700.000000pt" viewBox="0 0 700.000000 700.000000"
 preserveAspectRatio="xMidYMid meet">
<metadata>
Created by potrace 1.11, written by Peter Selinger 2001-2013
</metadata>
<g transform="translate(0.000000,700.000000) scale(0.100000,-0.100000)"
fill="#000000" stroke="none">
<path d="M1625 6994 c-16 -2 -82 -8 -145 -14 -262 -25 -457 -73 -625 -157
-100 -50 -226 -128 -233 -145 -2 -4 -8 -8 -13 -8 -25 0 -279 -254 -279 -279 0
-5 -4 -11 -8 -13 -21 -8 -132 -196 -173 -293 -27 -63 -59 -161 -77 -235 -20
-83 -28 -132 -54 -310 -16 -115 -24 -3765 -9 -3950 25 -292 50 -434 106 -595
35 -100 141 -303 194 -368 50 -62 155 -178 197 -218 151 -141 417 -289 594
-330 19 -4 62 -15 95 -23 33 -9 114 -24 180 -33 112 -17 257 -18 2125 -18
1612 0 2023 3 2095 13 125 19 244 41 280 52 176 56 211 70 317 125 338 175
611 505 717 865 7 25 17 56 22 70 10 29 32 145 51 275 10 72 13 483 13 2095 0
1868 -1 2013 -18 2125 -9 66 -24 147 -33 180 -8 33 -19 76 -23 95 -29 125
-131 335 -227 470 -45 63 -146 170 -224 238 -96 84 -119 102 -126 102 -3 0
-20 11 -38 25 -43 33 -236 128 -311 153 -115 38 -240 65 -445 94 -63 9 -574
12 -1990 13 -1048 1 -1918 1 -1935 -1z m3477 -1778 c80 -77 249 -240 644 -621
88 -85 92 -91 75 -105 -11 -8 -137 -130 -282 -270 -145 -140 -313 -302 -373
-360 -59 -58 -152 -148 -205 -200 -54 -52 -145 -140 -202 -195 -57 -55 -181
-174 -274 -265 -94 -91 -280 -271 -414 -400 -134 -129 -286 -275 -336 -325
-51 -49 -142 -137 -202 -195 -59 -58 -223 -216 -363 -352 -140 -135 -258 -248
-261 -250 -7 -3 -95 80 -354 331 -107 103 -531 514 -699 676 -309 298 -528
509 -600 578 l-89 85 128 123 c70 68 151 146 179 173 61 59 351 340 457 443
l76 75 91 -89 c441 -430 800 -775 807 -775 5 1 182 169 556 532 31 30 171 165
310 300 139 135 317 306 394 381 194 187 460 444 585 565 58 56 136 132 173
168 38 37 72 66 77 64 5 -2 50 -43 102 -92z"/>
</g>
</svg>
